<svg viewBox="-254 131 450 300" xmlns="http://www.w3.org/2000/svg"><path d="m-254 131h450v300h-450z" fill="#0f7562"/><path d="m-23.012 205.994 9.69-7.04h-11.977l-3.701-11.392-3.7 11.392h-11.978l9.69 7.04-3.7 11.388 9.688-7.038 9.687 7.038zm-66.402 40.896 7.245-4.02-8.223-1.009-1.581-8.131-3.5 7.508-8.224-1.01 6.06 5.652-3.501 7.513 7.246-4.02 6.06 5.65zm22.181-26.434 8.287.144-6.62-4.986 2.699-7.836-6.79 4.754-6.618-4.984 2.422 7.922-6.788 4.753 8.285.144 2.424 7.928z" fill="#ffde23"/><path d="m-87.52 343.422a90.21 90.21 0 0 0 4.887 3.906h107.266a90.21 90.21 0 0 0 4.887-3.906zm10.585 7.812a89.76 89.76 0 0 0 9.03 5h77.81a89.76 89.76 0 0 0 9.029-5h-95.87zm14.741 7.5c10.273 4.083 21.472 6.328 33.194 6.328s22.92-2.245 33.194-6.328zm-33.232-22.968c.776.848 1.57 1.682 2.378 2.5h128.096a91.672 91.672 0 0 0 2.378-2.5zm86.734-12.321c-9.961-3.013-16.714-8.463-20.308-11.864-3.594 3.4-10.347 8.85-20.308 11.864a50.648 50.648 0 0 1 -14.692 2.165h-39.458a90.246 90.246 0 0 0 3.657 5h38.145c12.437 0 23.832-4.487 32.656-11.928 8.824 7.441 20.219 11.928 32.656 11.927h38.145a90.246 90.246 0 0 0 3.657-5h-39.458a50.649 50.649 0 0 1 -14.692-2.163z" fill="#fff"/><path d="m4.28 317.484c-3.075 0-6.088-.275-9.013-.8 1.374.112 2.766.176 4.17.176 21.677 0 40.19-13.63 47.436-32.779a59.368 59.368 0 0 0 -22.905-4.565c-14.52 0-27.834 5.203-38.178 13.843 10.831-11.3 26.06-18.349 42.93-18.375a20.402 20.402 0 0 1 4.22-5.561 61.024 61.024 0 0 0 -2.72-.064c-16.96 0-32.27 7.095-43.126 18.477a50.45 50.45 0 0 0 9.922-30.117 50.438 50.438 0 0 0 -6.558-24.942 20.306 20.306 0 0 1 -4.707 8.115 50.468 50.468 0 0 1 4.859 21.67c0 11.67-3.951 22.421-10.586 30.992a50.443 50.443 0 0 0 8.555-28.18c0-5.022-.733-9.874-2.095-14.456-3.64-12.24-11.362-20.223-15.484-23.917-4.122 3.694-11.844 11.678-15.484 23.917a50.652 50.652 0 0 0 -2.095 14.457 50.443 50.443 0 0 0 8.555 28.179 50.455 50.455 0 0 1 -10.586-30.992 50.468 50.468 0 0 1 4.859-21.67 20.306 20.306 0 0 1 -4.707-8.115 50.438 50.438 0 0 0 -6.558 24.942 50.45 50.45 0 0 0 9.922 30.117c-10.857-11.382-26.166-18.477-43.125-18.477-.911 0-1.819.024-2.72.064a20.402 20.402 0 0 1 4.219 5.561c16.87.026 32.099 7.076 42.93 18.375-10.344-8.64-23.658-13.843-38.178-13.843a59.368 59.368 0 0 0 -22.905 4.565c7.247 19.149 25.759 32.779 47.436 32.779 1.404 0 2.796-.064 4.17-.176-2.925.525-5.938.8-9.013.8-13.678 0-26.093-5.424-35.216-14.238a20.18 20.18 0 0 1 -6.06 1.314c9.293 10.51 22.872 17.143 37.993 17.143 14.364 0 27.335-5.983 36.563-15.59 9.228 9.607 22.2 15.59 36.562 15.59 15.122 0 28.7-6.633 37.993-17.143a20.18 20.18 0 0 1 -6.059-1.314c-9.123 8.814-21.538 14.238-35.216 14.238z" fill="#fff"/><path d="m39.637 245.88 6.06-5.651-8.224 1.009-3.5-7.508-1.58 8.131-8.224 1.009 7.245 4.02-1.581 8.133 6.059-5.65 7.246 4.02zm-25.281-25.513 8.285-.144-6.788-4.753 2.422-7.922-6.618 4.984-6.79-4.754 2.699 7.836-6.62 4.986 8.287-.144 2.7 7.839z" fill="#ffde23"/></svg>