<svg height="885" viewBox="-17.582 -4.664 71.571 87.246" width="726" xmlns="http://www.w3.org/2000/svg" xmlns:xlink="http://www.w3.org/1999/xlink"><use stroke="#003893" stroke-width="5.165" xlink:href="#a"/><path id="a" d="m-15 37.57h60l-60-37.57v80h60l-60-60z" fill="#dc143c"/><path d="m0 35.43c6.6 0 11.95-5.35 11.95-11.95a12.802 12.802 0 0 1 -5.37 6.32l-1.02-.76 2-1.5-2.42-.62 1.28-2.17-2.5.36.37-2.48-2.17 1.3-.62-2.45-1.5 2-1.5-2-.63 2.44-2.16-1.28.37 2.5-2.5-.37 1.3 2.17-2.44.62 2 1.5-1 .77c-2.37-1.4-4.3-3.56-5.38-6.32 0 6.6 5.35 11.95 11.95 11.95zm-5.76 17.6-5.36-.66 3.25 4.3-4.97 2.12 4.97 2.1-3.25 4.3 5.36-.66-.66 5.37 4.3-3.25 2.12 4.98 2.1-4.98 4.32 3.26-.66-5.36 5.36.67-3.25-4.3 4.97-2.1-4.97-2.12 3.25-4.3-5.36.65.66-5.36-4.3 3.25-2.12-4.99-2.1 4.97-4.32-3.25z" fill="#fff"/></svg>